# xmcd
#
# Track frame offsets:
#	225
#	18027
#	33405
#	49242
#	71220
#	87342
#	104880
#	120087
#	138287
#	158347
#
# Disc length: 2384 seconds
#
# Revision: 0
# Processed by: cddbd v1.5PL3 Copyright (c) Steve Scherf et al.
# Submitted via: dBpowerAMP V4.0
#
DISCID=7b094d0a
DTITLE=許志安 - 荒廢的樂園
DYEAR=1900
DGENRE=
TTITLE0=雨天 晴天
TTITLE1=用愛造世界
TTITLE2=To The Top
TTITLE3=從你祝福中離開
TTITLE4=荒廢的樂園
TTITLE5=Lonely Nite
TTITLE6=在那天去後
TTITLE7=愛情折舊率
TTITLE8=世界不再乏味
TTITLE9=最完美的畫面
EXTD=
EXTT0=
EXTT1=
EXTT2=
EXTT3=
EXTT4=
EXTT5=
EXTT6=
EXTT7=
EXTT8=
EXTT9=
PLAYORDER=
